<svg width="44" height="42" viewBox="0 0 44 42" fill="none" xmlns="http://www.w3.org/2000/svg">
<path d="M38.916 11.0865C39.1828 11.015 39.3411 10.7408 39.2696 10.4741L38.1049 6.12744C38.0334 5.86071 37.7593 5.70242 37.4925 5.77389C37.2258 5.84536 37.0675 6.11953 37.139 6.38626L38.1742 10.25L34.3105 11.2852C34.0438 11.3567 33.8855 11.6309 33.957 11.8976C34.0285 12.1643 34.3026 12.3226 34.5694 12.2512L38.916 11.0865ZM37.6706 10.5365L38.5366 11.0365L39.0366 10.1705L38.1706 9.6705L37.6706 10.5365Z" fill="#5BDCDA"/>
<path d="M7.49988 36.5C0.99988 31.4999 -3.39164 16.5001 5.99982 7.49991C17.9998 -4.00014 30.4999 3.00001 37.4995 10.0002" stroke="#5BDCDA" stroke-linecap="round" stroke-dasharray="8 6"/>
<rect x="10.0294" y="25" width="16" height="16" rx="3" transform="rotate(-45 10.0294 25)" fill="#5BDCDA"/>
<rect x="21.3431" y="25" width="16" height="16" rx="3" transform="rotate(-45 21.3431 25)" fill="#5BDCDA" fill-opacity="0.1"/>
</svg>
