<svg width="42" height="38" viewBox="0 0 42 38" fill="none" xmlns="http://www.w3.org/2000/svg">
<path d="M38.9161 11.0865C39.1828 11.015 39.3411 10.7408 39.2696 10.4741L38.105 6.12744C38.0335 5.86071 37.7593 5.70242 37.4926 5.77389C37.2259 5.84536 37.0676 6.11953 37.139 6.38626L38.1743 10.25L34.3106 11.2852C34.0439 11.3567 33.8856 11.6309 33.9571 11.8976C34.0285 12.1643 34.3027 12.3226 34.5694 12.2512L38.9161 11.0865ZM37.6707 10.5365L38.5367 11.0365L39.0367 10.1705L38.1707 9.6705L37.6707 10.5365Z" fill="#5BDCDA"/>
<path d="M7.49988 36.5C0.99988 31.4999 -3.39164 16.5001 5.99982 7.49991C17.9998 -4.00014 30.4999 3.00001 37.4995 10.0002" stroke="#5BDCDA" stroke-linecap="round" stroke-dasharray="8 6"/>
<rect x="17" y="38" width="16" height="16" rx="3" transform="rotate(-90 17 38)" fill="#5BDCDA"/>
<rect x="25" y="30" width="16" height="16" rx="3" transform="rotate(-90 25 30)" fill="#5BDCDA" fill-opacity="0.1"/>
</svg>
