<svg width="722" height="32" viewBox="0 0 722 32" fill="none" xmlns="http://www.w3.org/2000/svg">
<rect x="347" width="90" height="32" rx="3" fill="#5BDCDA"/>
<path d="M3.102 16.39L10.076 19.272L9.57 20.79L1.078 17.182V15.62L9.57 12.012L10.076 13.53L3.102 16.39ZM12.562 22V7.062L14.388 6.754V11.946C14.6813 11.8287 15.0113 11.7407 15.378 11.682C15.7447 11.6087 16.104 11.572 16.456 11.572C17.2333 11.572 17.8787 11.6893 18.392 11.924C18.92 12.144 19.338 12.4593 19.646 12.87C19.954 13.2807 20.174 13.772 20.306 14.344C20.438 14.916 20.504 15.5467 20.504 16.236V22H18.7V16.632C18.7 15.3707 18.524 14.4833 18.172 13.97C17.82 13.442 17.1893 13.178 16.28 13.178C15.8987 13.178 15.5247 13.222 15.158 13.31C14.806 13.3833 14.5493 13.4567 14.388 13.53V22H12.562ZM31.24 11.858C31.24 12.3273 31.1447 12.782 30.954 13.222C30.778 13.662 30.536 14.0947 30.228 14.52C29.9347 14.9453 29.5973 15.3633 29.216 15.774C28.8347 16.1847 28.446 16.588 28.05 16.984C27.83 17.204 27.5733 17.468 27.28 17.776C26.9867 18.084 26.708 18.3993 26.444 18.722C26.18 19.0447 25.96 19.36 25.784 19.668C25.608 19.976 25.52 20.24 25.52 20.46H31.79V22H23.54C23.5253 21.9267 23.518 21.8533 23.518 21.78C23.518 21.692 23.518 21.6113 23.518 21.538C23.518 20.922 23.6207 20.35 23.826 19.822C24.0313 19.294 24.2953 18.7953 24.618 18.326C24.9407 17.8567 25.3 17.4167 25.696 17.006C26.1067 16.5807 26.51 16.17 26.906 15.774C27.2287 15.4513 27.5367 15.136 27.83 14.828C28.138 14.52 28.402 14.212 28.622 13.904C28.8567 13.596 29.04 13.2807 29.172 12.958C29.3187 12.6207 29.392 12.276 29.392 11.924C29.392 11.528 29.326 11.1907 29.194 10.912C29.0767 10.6333 28.908 10.406 28.688 10.23C28.4827 10.0393 28.2407 9.9 27.962 9.812C27.6833 9.724 27.3827 9.68 27.06 9.68C26.6787 9.68 26.3267 9.73133 26.004 9.834C25.696 9.93667 25.4173 10.0613 25.168 10.208C24.9333 10.3547 24.728 10.5013 24.552 10.648C24.376 10.78 24.244 10.89 24.156 10.978L23.254 9.702C23.3713 9.57 23.5473 9.40867 23.782 9.218C24.0167 9.02733 24.2953 8.85133 24.618 8.69C24.9553 8.514 25.3293 8.36733 25.74 8.25C26.1507 8.13267 26.5907 8.074 27.06 8.074C28.4827 8.074 29.5313 8.404 30.206 9.064C30.8953 9.70933 31.24 10.6407 31.24 11.858ZM34.078 13.53L34.584 12.012L43.076 15.62V17.182L34.584 20.79L34.078 19.272L41.052 16.39L34.078 13.53ZM113.102 16.39L120.076 19.272L119.57 20.79L111.078 17.182V15.62L119.57 12.012L120.076 13.53L113.102 16.39ZM128.722 19.448C128.722 19.0813 128.568 18.7807 128.26 18.546C127.967 18.3113 127.593 18.106 127.138 17.93C126.698 17.754 126.214 17.5853 125.686 17.424C125.158 17.248 124.667 17.0353 124.212 16.786C123.772 16.5367 123.398 16.2287 123.09 15.862C122.797 15.4953 122.65 15.0187 122.65 14.432C122.65 13.6107 122.98 12.9287 123.64 12.386C124.315 11.8287 125.363 11.55 126.786 11.55C127.343 11.55 127.915 11.594 128.502 11.682C129.103 11.7553 129.617 11.858 130.042 11.99L129.712 13.618C129.595 13.5593 129.433 13.5007 129.228 13.442C129.023 13.3687 128.788 13.31 128.524 13.266C128.26 13.2073 127.974 13.1633 127.666 13.134C127.373 13.1047 127.087 13.09 126.808 13.09C125.224 13.09 124.432 13.5227 124.432 14.388C124.432 14.696 124.579 14.96 124.872 15.18C125.18 15.3853 125.561 15.576 126.016 15.752C126.471 15.928 126.962 16.1113 127.49 16.302C128.018 16.478 128.509 16.698 128.964 16.962C129.419 17.226 129.793 17.5487 130.086 17.93C130.394 18.2967 130.548 18.766 130.548 19.338C130.548 20.262 130.189 20.9807 129.47 21.494C128.751 21.9927 127.615 22.242 126.06 22.242C125.356 22.242 124.711 22.1833 124.124 22.066C123.537 21.9487 122.98 21.7727 122.452 21.538L122.804 19.888C123.317 20.1227 123.853 20.3207 124.41 20.482C124.982 20.6287 125.591 20.702 126.236 20.702C127.893 20.702 128.722 20.284 128.722 19.448ZM140.25 16.918C140.25 15.73 139.971 14.8133 139.414 14.168C138.857 13.508 138.131 13.178 137.236 13.178C136.737 13.178 136.341 13.2 136.048 13.244C135.769 13.288 135.549 13.3393 135.388 13.398V19.844C135.593 20.0347 135.894 20.2107 136.29 20.372C136.686 20.5333 137.097 20.614 137.522 20.614C138.006 20.614 138.417 20.5187 138.754 20.328C139.106 20.1373 139.392 19.8807 139.612 19.558C139.832 19.2207 139.993 18.832 140.096 18.392C140.199 17.9373 140.25 17.446 140.25 16.918ZM142.12 16.918C142.12 17.6953 142.017 18.414 141.812 19.074C141.621 19.7193 141.335 20.2767 140.954 20.746C140.587 21.2153 140.133 21.582 139.59 21.846C139.047 22.11 138.431 22.242 137.742 22.242C137.199 22.242 136.723 22.176 136.312 22.044C135.901 21.912 135.593 21.7653 135.388 21.604V25.63H133.562V12.1C133.958 11.9827 134.464 11.8653 135.08 11.748C135.711 11.6307 136.429 11.572 137.236 11.572C137.969 11.572 138.637 11.6967 139.238 11.946C139.839 12.1953 140.353 12.5547 140.778 13.024C141.203 13.4787 141.533 14.036 141.768 14.696C142.003 15.356 142.12 16.0967 142.12 16.918ZM148.61 20.702C149.065 20.702 149.468 20.6873 149.82 20.658C150.187 20.6287 150.487 20.592 150.722 20.548V17.512C150.487 17.4387 150.201 17.38 149.864 17.336C149.541 17.292 149.197 17.27 148.83 17.27C148.493 17.27 148.163 17.2993 147.84 17.358C147.517 17.402 147.231 17.49 146.982 17.622C146.733 17.754 146.527 17.93 146.366 18.15C146.205 18.3553 146.124 18.6193 146.124 18.942C146.124 19.602 146.344 20.064 146.784 20.328C147.239 20.5773 147.847 20.702 148.61 20.702ZM148.434 11.55C149.197 11.55 149.835 11.6453 150.348 11.836C150.876 12.0267 151.301 12.2907 151.624 12.628C151.947 12.9653 152.174 13.376 152.306 13.86C152.438 14.344 152.504 14.872 152.504 15.444V21.824C152.079 21.8973 151.514 21.9853 150.81 22.088C150.121 22.1907 149.409 22.242 148.676 22.242C148.119 22.242 147.576 22.1907 147.048 22.088C146.52 22 146.051 21.8387 145.64 21.604C145.229 21.3547 144.899 21.0173 144.65 20.592C144.401 20.1667 144.276 19.624 144.276 18.964C144.276 18.3773 144.401 17.886 144.65 17.49C144.914 17.0793 145.244 16.7493 145.64 16.5C146.051 16.2507 146.513 16.0747 147.026 15.972C147.554 15.8547 148.082 15.796 148.61 15.796C149.329 15.796 150.033 15.8767 150.722 16.038V15.532C150.722 15.224 150.685 14.9307 150.612 14.652C150.553 14.3587 150.429 14.0947 150.238 13.86C150.062 13.6253 149.813 13.442 149.49 13.31C149.182 13.1633 148.779 13.09 148.28 13.09C147.649 13.09 147.099 13.134 146.63 13.222C146.161 13.31 145.801 13.398 145.552 13.486L145.332 11.99C145.581 11.8727 145.992 11.77 146.564 11.682C147.151 11.594 147.774 11.55 148.434 11.55ZM155.562 12.078C156.222 11.9167 156.875 11.792 157.52 11.704C158.18 11.616 158.796 11.572 159.368 11.572C160.732 11.572 161.759 11.924 162.448 12.628C163.152 13.332 163.504 14.4613 163.504 16.016V22H161.7V16.346C161.7 15.686 161.641 15.1507 161.524 14.74C161.407 14.3293 161.238 14.014 161.018 13.794C160.813 13.5593 160.556 13.398 160.248 13.31C159.955 13.222 159.632 13.178 159.28 13.178C158.987 13.178 158.671 13.2 158.334 13.244C158.011 13.2733 157.696 13.3173 157.388 13.376V22H155.562V12.078ZM553.102 16.39L560.076 19.272L559.57 20.79L551.078 17.182V15.62L559.57 12.012L560.076 13.53L553.102 16.39ZM568.722 19.448C568.722 19.0813 568.568 18.7807 568.26 18.546C567.967 18.3113 567.593 18.106 567.138 17.93C566.698 17.754 566.214 17.5853 565.686 17.424C565.158 17.248 564.667 17.0353 564.212 16.786C563.772 16.5367 563.398 16.2287 563.09 15.862C562.797 15.4953 562.65 15.0187 562.65 14.432C562.65 13.6107 562.98 12.9287 563.64 12.386C564.315 11.8287 565.363 11.55 566.786 11.55C567.343 11.55 567.915 11.594 568.502 11.682C569.103 11.7553 569.617 11.858 570.042 11.99L569.712 13.618C569.595 13.5593 569.433 13.5007 569.228 13.442C569.023 13.3687 568.788 13.31 568.524 13.266C568.26 13.2073 567.974 13.1633 567.666 13.134C567.373 13.1047 567.087 13.09 566.808 13.09C565.224 13.09 564.432 13.5227 564.432 14.388C564.432 14.696 564.579 14.96 564.872 15.18C565.18 15.3853 565.561 15.576 566.016 15.752C566.471 15.928 566.962 16.1113 567.49 16.302C568.018 16.478 568.509 16.698 568.964 16.962C569.419 17.226 569.793 17.5487 570.086 17.93C570.394 18.2967 570.548 18.766 570.548 19.338C570.548 20.262 570.189 20.9807 569.47 21.494C568.751 21.9927 567.615 22.242 566.06 22.242C565.356 22.242 564.711 22.1833 564.124 22.066C563.537 21.9487 562.98 21.7727 562.452 21.538L562.804 19.888C563.317 20.1227 563.853 20.3207 564.41 20.482C564.982 20.6287 565.591 20.702 566.236 20.702C567.893 20.702 568.722 20.284 568.722 19.448ZM580.25 16.918C580.25 15.73 579.971 14.8133 579.414 14.168C578.857 13.508 578.131 13.178 577.236 13.178C576.737 13.178 576.341 13.2 576.048 13.244C575.769 13.288 575.549 13.3393 575.388 13.398V19.844C575.593 20.0347 575.894 20.2107 576.29 20.372C576.686 20.5333 577.097 20.614 577.522 20.614C578.006 20.614 578.417 20.5187 578.754 20.328C579.106 20.1373 579.392 19.8807 579.612 19.558C579.832 19.2207 579.993 18.832 580.096 18.392C580.199 17.9373 580.25 17.446 580.25 16.918ZM582.12 16.918C582.12 17.6953 582.017 18.414 581.812 19.074C581.621 19.7193 581.335 20.2767 580.954 20.746C580.587 21.2153 580.133 21.582 579.59 21.846C579.047 22.11 578.431 22.242 577.742 22.242C577.199 22.242 576.723 22.176 576.312 22.044C575.901 21.912 575.593 21.7653 575.388 21.604V25.63H573.562V12.1C573.958 11.9827 574.464 11.8653 575.08 11.748C575.711 11.6307 576.429 11.572 577.236 11.572C577.969 11.572 578.637 11.6967 579.238 11.946C579.839 12.1953 580.353 12.5547 580.778 13.024C581.203 13.4787 581.533 14.036 581.768 14.696C582.003 15.356 582.12 16.0967 582.12 16.918ZM588.61 20.702C589.065 20.702 589.468 20.6873 589.82 20.658C590.187 20.6287 590.487 20.592 590.722 20.548V17.512C590.487 17.4387 590.201 17.38 589.864 17.336C589.541 17.292 589.197 17.27 588.83 17.27C588.493 17.27 588.163 17.2993 587.84 17.358C587.517 17.402 587.231 17.49 586.982 17.622C586.733 17.754 586.527 17.93 586.366 18.15C586.205 18.3553 586.124 18.6193 586.124 18.942C586.124 19.602 586.344 20.064 586.784 20.328C587.239 20.5773 587.847 20.702 588.61 20.702ZM588.434 11.55C589.197 11.55 589.835 11.6453 590.348 11.836C590.876 12.0267 591.301 12.2907 591.624 12.628C591.947 12.9653 592.174 13.376 592.306 13.86C592.438 14.344 592.504 14.872 592.504 15.444V21.824C592.079 21.8973 591.514 21.9853 590.81 22.088C590.121 22.1907 589.409 22.242 588.676 22.242C588.119 22.242 587.576 22.1907 587.048 22.088C586.52 22 586.051 21.8387 585.64 21.604C585.229 21.3547 584.899 21.0173 584.65 20.592C584.401 20.1667 584.276 19.624 584.276 18.964C584.276 18.3773 584.401 17.886 584.65 17.49C584.914 17.0793 585.244 16.7493 585.64 16.5C586.051 16.2507 586.513 16.0747 587.026 15.972C587.554 15.8547 588.082 15.796 588.61 15.796C589.329 15.796 590.033 15.8767 590.722 16.038V15.532C590.722 15.224 590.685 14.9307 590.612 14.652C590.553 14.3587 590.429 14.0947 590.238 13.86C590.062 13.6253 589.813 13.442 589.49 13.31C589.182 13.1633 588.779 13.09 588.28 13.09C587.649 13.09 587.099 13.134 586.63 13.222C586.161 13.31 585.801 13.398 585.552 13.486L585.332 11.99C585.581 11.8727 585.992 11.77 586.564 11.682C587.151 11.594 587.774 11.55 588.434 11.55ZM595.562 12.078C596.222 11.9167 596.875 11.792 597.52 11.704C598.18 11.616 598.796 11.572 599.368 11.572C600.732 11.572 601.759 11.924 602.448 12.628C603.152 13.332 603.504 14.4613 603.504 16.016V22H601.7V16.346C601.7 15.686 601.641 15.1507 601.524 14.74C601.407 14.3293 601.238 14.014 601.018 13.794C600.813 13.5593 600.556 13.398 600.248 13.31C599.955 13.222 599.632 13.178 599.28 13.178C598.987 13.178 598.671 13.2 598.334 13.244C598.011 13.2733 597.696 13.3173 597.388 13.376V22H595.562V12.078ZM606.078 13.53L606.584 12.012L615.076 15.62V17.182L606.584 20.79L606.078 19.272L613.052 16.39L606.078 13.53ZM619.102 16.39L626.076 19.272L625.57 20.79L617.078 17.182V15.62L625.57 12.012L626.076 13.53L619.102 16.39ZM628.562 22V7.062L630.388 6.754V11.946C630.681 11.8287 631.011 11.7407 631.378 11.682C631.745 11.6087 632.104 11.572 632.456 11.572C633.233 11.572 633.879 11.6893 634.392 11.924C634.92 12.144 635.338 12.4593 635.646 12.87C635.954 13.2807 636.174 13.772 636.306 14.344C636.438 14.916 636.504 15.5467 636.504 16.236V22H634.7V16.632C634.7 15.3707 634.524 14.4833 634.172 13.97C633.82 13.442 633.189 13.178 632.28 13.178C631.899 13.178 631.525 13.222 631.158 13.31C630.806 13.3833 630.549 13.4567 630.388 13.53V22H628.562ZM647.24 11.858C647.24 12.3273 647.145 12.782 646.954 13.222C646.778 13.662 646.536 14.0947 646.228 14.52C645.935 14.9453 645.597 15.3633 645.216 15.774C644.835 16.1847 644.446 16.588 644.05 16.984C643.83 17.204 643.573 17.468 643.28 17.776C642.987 18.084 642.708 18.3993 642.444 18.722C642.18 19.0447 641.96 19.36 641.784 19.668C641.608 19.976 641.52 20.24 641.52 20.46H647.79V22H639.54C639.525 21.9267 639.518 21.8533 639.518 21.78C639.518 21.692 639.518 21.6113 639.518 21.538C639.518 20.922 639.621 20.35 639.826 19.822C640.031 19.294 640.295 18.7953 640.618 18.326C640.941 17.8567 641.3 17.4167 641.696 17.006C642.107 16.5807 642.51 16.17 642.906 15.774C643.229 15.4513 643.537 15.136 643.83 14.828C644.138 14.52 644.402 14.212 644.622 13.904C644.857 13.596 645.04 13.2807 645.172 12.958C645.319 12.6207 645.392 12.276 645.392 11.924C645.392 11.528 645.326 11.1907 645.194 10.912C645.077 10.6333 644.908 10.406 644.688 10.23C644.483 10.0393 644.241 9.9 643.962 9.812C643.683 9.724 643.383 9.68 643.06 9.68C642.679 9.68 642.327 9.73133 642.004 9.834C641.696 9.93667 641.417 10.0613 641.168 10.208C640.933 10.3547 640.728 10.5013 640.552 10.648C640.376 10.78 640.244 10.89 640.156 10.978L639.254 9.702C639.371 9.57 639.547 9.40867 639.782 9.218C640.017 9.02733 640.295 8.85133 640.618 8.69C640.955 8.514 641.329 8.36733 641.74 8.25C642.151 8.13267 642.591 8.074 643.06 8.074C644.483 8.074 645.531 8.404 646.206 9.064C646.895 9.70933 647.24 10.6407 647.24 11.858ZM650.078 13.53L650.584 12.012L659.076 15.62V17.182L650.584 20.79L650.078 19.272L657.052 16.39L650.078 13.53Z" fill="#D83483"/>
<path d="M51.546 22C51.326 21.5013 51.1353 21.0467 50.974 20.636C50.8127 20.2253 50.6513 19.8147 50.49 19.404C50.3433 18.9933 50.1893 18.568 50.028 18.128C49.8813 17.6733 49.7053 17.16 49.5 16.588C49.2947 17.16 49.1113 17.6733 48.95 18.128C48.7887 18.568 48.6273 18.9933 48.466 19.404C48.3193 19.8147 48.158 20.2253 47.982 20.636C47.8207 21.0467 47.63 21.5013 47.41 22H46.046C45.6353 20.196 45.2907 18.414 45.012 16.654C44.748 14.8793 44.55 13.2587 44.418 11.792H46.134C46.178 12.364 46.222 12.9287 46.266 13.486C46.3247 14.0287 46.3907 14.6007 46.464 15.202C46.5373 15.8033 46.618 16.456 46.706 17.16C46.8087 17.864 46.9187 18.656 47.036 19.536C47.2707 18.9493 47.4687 18.436 47.63 17.996C47.7913 17.556 47.938 17.138 48.07 16.742C48.202 16.346 48.3267 15.9427 48.444 15.532C48.576 15.1213 48.7153 14.6593 48.862 14.146H50.226C50.3727 14.6593 50.5047 15.1213 50.622 15.532C50.7393 15.9427 50.864 16.346 50.996 16.742C51.128 17.138 51.2673 17.556 51.414 17.996C51.5607 18.436 51.744 18.942 51.964 19.514C52.096 18.7073 52.2133 17.9593 52.316 17.27C52.4187 16.5807 52.5067 15.9353 52.58 15.334C52.6533 14.718 52.7193 14.124 52.778 13.552C52.8367 12.98 52.888 12.3933 52.932 11.792H54.582C54.5087 12.5253 54.4207 13.31 54.318 14.146C54.2153 14.982 54.0907 15.84 53.944 16.72C53.7973 17.6 53.636 18.4947 53.46 19.404C53.284 20.2987 53.1007 21.164 52.91 22H51.546ZM60.698 11.55C62.0767 11.55 63.14 11.9827 63.888 12.848C64.636 13.6987 65.01 14.9967 65.01 16.742V17.38H57.706C57.7793 18.436 58.124 19.2427 58.74 19.8C59.3707 20.3427 60.2507 20.614 61.38 20.614C62.0253 20.614 62.5753 20.5627 63.03 20.46C63.4847 20.3573 63.8293 20.2473 64.064 20.13L64.306 21.67C64.086 21.7873 63.69 21.912 63.118 22.044C62.546 22.176 61.9007 22.242 61.182 22.242C60.302 22.242 59.5247 22.11 58.85 21.846C58.19 21.5673 57.64 21.1933 57.2 20.724C56.76 20.2547 56.43 19.6973 56.21 19.052C55.99 18.392 55.88 17.6807 55.88 16.918C55.88 16.0087 56.0193 15.2167 56.298 14.542C56.5767 13.8673 56.9433 13.31 57.398 12.87C57.8527 12.43 58.366 12.1 58.938 11.88C59.51 11.66 60.0967 11.55 60.698 11.55ZM63.162 15.906C63.162 15.0407 62.9347 14.3587 62.48 13.86C62.0253 13.3467 61.424 13.09 60.676 13.09C60.2507 13.09 59.862 13.1707 59.51 13.332C59.1727 13.4933 58.8793 13.706 58.63 13.97C58.3807 14.234 58.1827 14.5347 58.036 14.872C57.8893 15.2093 57.794 15.554 57.75 15.906H63.162ZM82.61 20.702C83.0647 20.702 83.468 20.6873 83.82 20.658C84.1867 20.6287 84.4873 20.592 84.722 20.548V17.512C84.4873 17.4387 84.2013 17.38 83.864 17.336C83.5413 17.292 83.1967 17.27 82.83 17.27C82.4927 17.27 82.1627 17.2993 81.84 17.358C81.5173 17.402 81.2313 17.49 80.982 17.622C80.7327 17.754 80.5273 17.93 80.366 18.15C80.2047 18.3553 80.124 18.6193 80.124 18.942C80.124 19.602 80.344 20.064 80.784 20.328C81.2387 20.5773 81.8473 20.702 82.61 20.702ZM82.434 11.55C83.1967 11.55 83.8347 11.6453 84.348 11.836C84.876 12.0267 85.3013 12.2907 85.624 12.628C85.9467 12.9653 86.174 13.376 86.306 13.86C86.438 14.344 86.504 14.872 86.504 15.444V21.824C86.0787 21.8973 85.514 21.9853 84.81 22.088C84.1207 22.1907 83.4093 22.242 82.676 22.242C82.1187 22.242 81.576 22.1907 81.048 22.088C80.52 22 80.0507 21.8387 79.64 21.604C79.2293 21.3547 78.8993 21.0173 78.65 20.592C78.4007 20.1667 78.276 19.624 78.276 18.964C78.276 18.3773 78.4007 17.886 78.65 17.49C78.914 17.0793 79.244 16.7493 79.64 16.5C80.0507 16.2507 80.5127 16.0747 81.026 15.972C81.554 15.8547 82.082 15.796 82.61 15.796C83.3287 15.796 84.0327 15.8767 84.722 16.038V15.532C84.722 15.224 84.6853 14.9307 84.612 14.652C84.5533 14.3587 84.4287 14.0947 84.238 13.86C84.062 13.6253 83.8127 13.442 83.49 13.31C83.182 13.1633 82.7787 13.09 82.28 13.09C81.6493 13.09 81.0993 13.134 80.63 13.222C80.1607 13.31 79.8013 13.398 79.552 13.486L79.332 11.99C79.5813 11.8727 79.992 11.77 80.564 11.682C81.1507 11.594 81.774 11.55 82.434 11.55ZM90.354 22V12.342C91.85 11.8287 93.3607 11.572 94.886 11.572C95.3553 11.572 95.8027 11.594 96.228 11.638C96.6533 11.6673 97.1227 11.7407 97.636 11.858L97.306 13.464C96.8367 13.332 96.4187 13.2513 96.052 13.222C95.7 13.178 95.3113 13.156 94.886 13.156C93.9913 13.156 93.082 13.2807 92.158 13.53V22H90.354ZM104.698 11.55C106.077 11.55 107.14 11.9827 107.888 12.848C108.636 13.6987 109.01 14.9967 109.01 16.742V17.38H101.706C101.779 18.436 102.124 19.2427 102.74 19.8C103.371 20.3427 104.251 20.614 105.38 20.614C106.025 20.614 106.575 20.5627 107.03 20.46C107.485 20.3573 107.829 20.2473 108.064 20.13L108.306 21.67C108.086 21.7873 107.69 21.912 107.118 22.044C106.546 22.176 105.901 22.242 105.182 22.242C104.302 22.242 103.525 22.11 102.85 21.846C102.19 21.5673 101.64 21.1933 101.2 20.724C100.76 20.2547 100.43 19.6973 100.21 19.052C99.99 18.392 99.88 17.6807 99.88 16.918C99.88 16.0087 100.019 15.2167 100.298 14.542C100.577 13.8673 100.943 13.31 101.398 12.87C101.853 12.43 102.366 12.1 102.938 11.88C103.51 11.66 104.097 11.55 104.698 11.55ZM107.162 15.906C107.162 15.0407 106.935 14.3587 106.48 13.86C106.025 13.3467 105.424 13.09 104.676 13.09C104.251 13.09 103.862 13.1707 103.51 13.332C103.173 13.4933 102.879 13.706 102.63 13.97C102.381 14.234 102.183 14.5347 102.036 14.872C101.889 15.2093 101.794 15.554 101.75 15.906H107.162ZM467.61 20.702C468.065 20.702 468.468 20.6873 468.82 20.658C469.187 20.6287 469.487 20.592 469.722 20.548V17.512C469.487 17.4387 469.201 17.38 468.864 17.336C468.541 17.292 468.197 17.27 467.83 17.27C467.493 17.27 467.163 17.2993 466.84 17.358C466.517 17.402 466.231 17.49 465.982 17.622C465.733 17.754 465.527 17.93 465.366 18.15C465.205 18.3553 465.124 18.6193 465.124 18.942C465.124 19.602 465.344 20.064 465.784 20.328C466.239 20.5773 466.847 20.702 467.61 20.702ZM467.434 11.55C468.197 11.55 468.835 11.6453 469.348 11.836C469.876 12.0267 470.301 12.2907 470.624 12.628C470.947 12.9653 471.174 13.376 471.306 13.86C471.438 14.344 471.504 14.872 471.504 15.444V21.824C471.079 21.8973 470.514 21.9853 469.81 22.088C469.121 22.1907 468.409 22.242 467.676 22.242C467.119 22.242 466.576 22.1907 466.048 22.088C465.52 22 465.051 21.8387 464.64 21.604C464.229 21.3547 463.899 21.0173 463.65 20.592C463.401 20.1667 463.276 19.624 463.276 18.964C463.276 18.3773 463.401 17.886 463.65 17.49C463.914 17.0793 464.244 16.7493 464.64 16.5C465.051 16.2507 465.513 16.0747 466.026 15.972C466.554 15.8547 467.082 15.796 467.61 15.796C468.329 15.796 469.033 15.8767 469.722 16.038V15.532C469.722 15.224 469.685 14.9307 469.612 14.652C469.553 14.3587 469.429 14.0947 469.238 13.86C469.062 13.6253 468.813 13.442 468.49 13.31C468.182 13.1633 467.779 13.09 467.28 13.09C466.649 13.09 466.099 13.134 465.63 13.222C465.161 13.31 464.801 13.398 464.552 13.486L464.332 11.99C464.581 11.8727 464.992 11.77 465.564 11.682C466.151 11.594 466.774 11.55 467.434 11.55ZM480.546 22C480.326 21.5013 480.135 21.0467 479.974 20.636C479.813 20.2253 479.651 19.8147 479.49 19.404C479.343 18.9933 479.189 18.568 479.028 18.128C478.881 17.6733 478.705 17.16 478.5 16.588C478.295 17.16 478.111 17.6733 477.95 18.128C477.789 18.568 477.627 18.9933 477.466 19.404C477.319 19.8147 477.158 20.2253 476.982 20.636C476.821 21.0467 476.63 21.5013 476.41 22H475.046C474.635 20.196 474.291 18.414 474.012 16.654C473.748 14.8793 473.55 13.2587 473.418 11.792H475.134C475.178 12.364 475.222 12.9287 475.266 13.486C475.325 14.0287 475.391 14.6007 475.464 15.202C475.537 15.8033 475.618 16.456 475.706 17.16C475.809 17.864 475.919 18.656 476.036 19.536C476.271 18.9493 476.469 18.436 476.63 17.996C476.791 17.556 476.938 17.138 477.07 16.742C477.202 16.346 477.327 15.9427 477.444 15.532C477.576 15.1213 477.715 14.6593 477.862 14.146H479.226C479.373 14.6593 479.505 15.1213 479.622 15.532C479.739 15.9427 479.864 16.346 479.996 16.742C480.128 17.138 480.267 17.556 480.414 17.996C480.561 18.436 480.744 18.942 480.964 19.514C481.096 18.7073 481.213 17.9593 481.316 17.27C481.419 16.5807 481.507 15.9353 481.58 15.334C481.653 14.718 481.719 14.124 481.778 13.552C481.837 12.98 481.888 12.3933 481.932 11.792H483.582C483.509 12.5253 483.421 13.31 483.318 14.146C483.215 14.982 483.091 15.84 482.944 16.72C482.797 17.6 482.636 18.4947 482.46 19.404C482.284 20.2987 482.101 21.164 481.91 22H480.546ZM489.698 11.55C491.077 11.55 492.14 11.9827 492.888 12.848C493.636 13.6987 494.01 14.9967 494.01 16.742V17.38H486.706C486.779 18.436 487.124 19.2427 487.74 19.8C488.371 20.3427 489.251 20.614 490.38 20.614C491.025 20.614 491.575 20.5627 492.03 20.46C492.485 20.3573 492.829 20.2473 493.064 20.13L493.306 21.67C493.086 21.7873 492.69 21.912 492.118 22.044C491.546 22.176 490.901 22.242 490.182 22.242C489.302 22.242 488.525 22.11 487.85 21.846C487.19 21.5673 486.64 21.1933 486.2 20.724C485.76 20.2547 485.43 19.6973 485.21 19.052C484.99 18.392 484.88 17.6807 484.88 16.918C484.88 16.0087 485.019 15.2167 485.298 14.542C485.577 13.8673 485.943 13.31 486.398 12.87C486.853 12.43 487.366 12.1 487.938 11.88C488.51 11.66 489.097 11.55 489.698 11.55ZM492.162 15.906C492.162 15.0407 491.935 14.3587 491.48 13.86C491.025 13.3467 490.424 13.09 489.676 13.09C489.251 13.09 488.862 13.1707 488.51 13.332C488.173 13.4933 487.879 13.706 487.63 13.97C487.381 14.234 487.183 14.5347 487.036 14.872C486.889 15.2093 486.794 15.554 486.75 15.906H492.162ZM502.722 19.448C502.722 19.0813 502.568 18.7807 502.26 18.546C501.967 18.3113 501.593 18.106 501.138 17.93C500.698 17.754 500.214 17.5853 499.686 17.424C499.158 17.248 498.667 17.0353 498.212 16.786C497.772 16.5367 497.398 16.2287 497.09 15.862C496.797 15.4953 496.65 15.0187 496.65 14.432C496.65 13.6107 496.98 12.9287 497.64 12.386C498.315 11.8287 499.363 11.55 500.786 11.55C501.343 11.55 501.915 11.594 502.502 11.682C503.103 11.7553 503.617 11.858 504.042 11.99L503.712 13.618C503.595 13.5593 503.433 13.5007 503.228 13.442C503.023 13.3687 502.788 13.31 502.524 13.266C502.26 13.2073 501.974 13.1633 501.666 13.134C501.373 13.1047 501.087 13.09 500.808 13.09C499.224 13.09 498.432 13.5227 498.432 14.388C498.432 14.696 498.579 14.96 498.872 15.18C499.18 15.3853 499.561 15.576 500.016 15.752C500.471 15.928 500.962 16.1113 501.49 16.302C502.018 16.478 502.509 16.698 502.964 16.962C503.419 17.226 503.793 17.5487 504.086 17.93C504.394 18.2967 504.548 18.766 504.548 19.338C504.548 20.262 504.189 20.9807 503.47 21.494C502.751 21.9927 501.615 22.242 500.06 22.242C499.356 22.242 498.711 22.1833 498.124 22.066C497.537 21.9487 496.98 21.7727 496.452 21.538L496.804 19.888C497.317 20.1227 497.853 20.3207 498.41 20.482C498.982 20.6287 499.591 20.702 500.236 20.702C501.893 20.702 502.722 20.284 502.722 19.448ZM516.12 16.896C516.12 17.7027 516.003 18.436 515.768 19.096C515.548 19.7413 515.233 20.2987 514.822 20.768C514.411 21.2373 513.92 21.604 513.348 21.868C512.776 22.1173 512.153 22.242 511.478 22.242C510.818 22.242 510.202 22.1173 509.63 21.868C509.073 21.604 508.589 21.2373 508.178 20.768C507.767 20.2987 507.445 19.7413 507.21 19.096C506.99 18.436 506.88 17.7027 506.88 16.896C506.88 16.0893 506.99 15.356 507.21 14.696C507.445 14.036 507.767 13.4787 508.178 13.024C508.589 12.5547 509.073 12.1953 509.63 11.946C510.202 11.682 510.818 11.55 511.478 11.55C512.153 11.55 512.776 11.682 513.348 11.946C513.92 12.1953 514.411 12.5547 514.822 13.024C515.233 13.4787 515.548 14.036 515.768 14.696C516.003 15.356 516.12 16.0893 516.12 16.896ZM514.25 16.896C514.25 15.7373 514.001 14.828 513.502 14.168C513.003 13.4933 512.329 13.156 511.478 13.156C510.642 13.156 509.975 13.4933 509.476 14.168C508.992 14.828 508.75 15.7373 508.75 16.896C508.75 18.04 508.992 18.9493 509.476 19.624C509.975 20.284 510.642 20.614 511.478 20.614C512.329 20.614 513.003 20.284 513.502 19.624C514.001 18.9493 514.25 18.04 514.25 16.896ZM517.902 12.078C518.782 11.7407 519.611 11.572 520.388 11.572C520.813 11.572 521.209 11.638 521.576 11.77C521.957 11.8873 522.28 12.078 522.544 12.342C523.175 11.8287 523.849 11.572 524.568 11.572C524.92 11.572 525.25 11.638 525.558 11.77C525.881 11.902 526.159 12.1 526.394 12.364C526.643 12.628 526.841 12.958 526.988 13.354C527.135 13.75 527.208 14.212 527.208 14.74V22H525.558V14.696C525.558 14.168 525.441 13.7647 525.206 13.486C524.971 13.2073 524.678 13.068 524.326 13.068C524.15 13.068 523.967 13.112 523.776 13.2C523.585 13.288 523.409 13.4273 523.248 13.618C523.336 13.9553 523.38 14.3293 523.38 14.74V18.062H521.73V14.718C521.73 14.2047 521.649 13.8013 521.488 13.508C521.327 13.2147 521.011 13.068 520.542 13.068C520.249 13.068 519.919 13.134 519.552 13.266V22H517.902V12.078ZM533.698 11.55C535.077 11.55 536.14 11.9827 536.888 12.848C537.636 13.6987 538.01 14.9967 538.01 16.742V17.38H530.706C530.779 18.436 531.124 19.2427 531.74 19.8C532.371 20.3427 533.251 20.614 534.38 20.614C535.025 20.614 535.575 20.5627 536.03 20.46C536.485 20.3573 536.829 20.2473 537.064 20.13L537.306 21.67C537.086 21.7873 536.69 21.912 536.118 22.044C535.546 22.176 534.901 22.242 534.182 22.242C533.302 22.242 532.525 22.11 531.85 21.846C531.19 21.5673 530.64 21.1933 530.2 20.724C529.76 20.2547 529.43 19.6973 529.21 19.052C528.99 18.392 528.88 17.6807 528.88 16.918C528.88 16.0087 529.019 15.2167 529.298 14.542C529.577 13.8673 529.943 13.31 530.398 12.87C530.853 12.43 531.366 12.1 531.938 11.88C532.51 11.66 533.097 11.55 533.698 11.55ZM536.162 15.906C536.162 15.0407 535.935 14.3587 535.48 13.86C535.025 13.3467 534.424 13.09 533.676 13.09C533.251 13.09 532.862 13.1707 532.51 13.332C532.173 13.4933 531.879 13.706 531.63 13.97C531.381 14.234 531.183 14.5347 531.036 14.872C530.889 15.2093 530.794 15.554 530.75 15.906H536.162ZM546.128 20.592C546.128 21.032 545.981 21.4207 545.688 21.758C545.395 22.0953 545.006 22.264 544.522 22.264C544.023 22.264 543.627 22.0953 543.334 21.758C543.041 21.4207 542.894 21.032 542.894 20.592C542.894 20.1373 543.041 19.7413 543.334 19.404C543.627 19.0667 544.023 18.898 544.522 18.898C545.006 18.898 545.395 19.0667 545.688 19.404C545.981 19.7413 546.128 20.1373 546.128 20.592Z" fill="#E5E5E5"/>
<path d="M243.012 17.534H252.01V19.096H243.012V17.534ZM243.012 13.354H252.01V14.916H243.012V13.354ZM452.078 13.53L452.584 12.012L461.076 15.62V17.182L452.584 20.79L452.078 19.272L459.052 16.39L452.078 13.53Z" fill="#5BDCDA"/>
<path d="M183.722 19.448C183.722 19.0813 183.568 18.7807 183.26 18.546C182.967 18.3113 182.593 18.106 182.138 17.93C181.698 17.754 181.214 17.5853 180.686 17.424C180.158 17.248 179.667 17.0353 179.212 16.786C178.772 16.5367 178.398 16.2287 178.09 15.862C177.797 15.4953 177.65 15.0187 177.65 14.432C177.65 13.6107 177.98 12.9287 178.64 12.386C179.315 11.8287 180.363 11.55 181.786 11.55C182.343 11.55 182.915 11.594 183.502 11.682C184.103 11.7553 184.617 11.858 185.042 11.99L184.712 13.618C184.595 13.5593 184.433 13.5007 184.228 13.442C184.023 13.3687 183.788 13.31 183.524 13.266C183.26 13.2073 182.974 13.1633 182.666 13.134C182.373 13.1047 182.087 13.09 181.808 13.09C180.224 13.09 179.432 13.5227 179.432 14.388C179.432 14.696 179.579 14.96 179.872 15.18C180.18 15.3853 180.561 15.576 181.016 15.752C181.471 15.928 181.962 16.1113 182.49 16.302C183.018 16.478 183.509 16.698 183.964 16.962C184.419 17.226 184.793 17.5487 185.086 17.93C185.394 18.2967 185.548 18.766 185.548 19.338C185.548 20.262 185.189 20.9807 184.47 21.494C183.751 21.9927 182.615 22.242 181.06 22.242C180.356 22.242 179.711 22.1833 179.124 22.066C178.537 21.9487 177.98 21.7727 177.452 21.538L177.804 19.888C178.317 20.1227 178.853 20.3207 179.41 20.482C179.982 20.6287 180.591 20.702 181.236 20.702C182.893 20.702 183.722 20.284 183.722 19.448ZM192.346 11.792H196.658V13.31H192.346V18.062C192.346 18.5753 192.383 18.9933 192.456 19.316C192.529 19.6387 192.647 19.9027 192.808 20.108C192.984 20.2987 193.204 20.4307 193.468 20.504C193.732 20.5773 194.055 20.614 194.436 20.614C194.964 20.614 195.389 20.57 195.712 20.482C196.035 20.394 196.343 20.2767 196.636 20.13L196.9 21.67C196.695 21.758 196.365 21.8753 195.91 22.022C195.47 22.1687 194.92 22.242 194.26 22.242C193.497 22.242 192.874 22.154 192.39 21.978C191.906 21.802 191.525 21.538 191.246 21.186C190.982 20.834 190.799 20.4013 190.696 19.888C190.593 19.36 190.542 18.7513 190.542 18.062V13.31H188.386V11.792H190.542V8.932L192.346 8.624V11.792ZM199.122 23.914C199.254 23.9873 199.437 24.046 199.672 24.09C199.921 24.134 200.149 24.156 200.354 24.156C201.073 24.156 201.63 23.9947 202.026 23.672C202.437 23.364 202.811 22.8507 203.148 22.132C202.327 20.5773 201.557 18.9127 200.838 17.138C200.119 15.3487 199.525 13.5667 199.056 11.792H201.036C201.183 12.3787 201.351 13.0167 201.542 13.706C201.747 14.3807 201.975 15.0773 202.224 15.796C202.473 16.5147 202.737 17.2407 203.016 17.974C203.309 18.6927 203.617 19.382 203.94 20.042C204.175 19.3673 204.395 18.7 204.6 18.04C204.805 17.38 204.996 16.72 205.172 16.06C205.348 15.3853 205.524 14.7033 205.7 14.014C205.876 13.31 206.059 12.5693 206.25 11.792H208.142C207.673 13.6987 207.145 15.5467 206.558 17.336C205.986 19.1253 205.37 20.7827 204.71 22.308C204.461 22.8947 204.189 23.4007 203.896 23.826C203.617 24.2513 203.309 24.6033 202.972 24.882C202.635 25.1607 202.253 25.366 201.828 25.498C201.403 25.63 200.919 25.696 200.376 25.696C200.097 25.696 199.789 25.6593 199.452 25.586C199.129 25.5127 198.909 25.4467 198.792 25.388L199.122 23.914ZM216.436 22.242C215.791 22.242 215.255 22.154 214.83 21.978C214.405 21.802 214.067 21.538 213.818 21.186C213.569 20.834 213.393 20.4013 213.29 19.888C213.187 19.36 213.136 18.7513 213.136 18.062V8.404H210.188V6.864H214.94V18.062C214.94 18.5753 214.969 18.9933 215.028 19.316C215.101 19.6387 215.204 19.9027 215.336 20.108C215.483 20.2987 215.659 20.4307 215.864 20.504C216.069 20.5773 216.311 20.614 216.59 20.614C217.015 20.614 217.411 20.5627 217.778 20.46C218.145 20.3573 218.431 20.2473 218.636 20.13L218.9 21.67C218.812 21.714 218.687 21.7727 218.526 21.846C218.365 21.9047 218.174 21.9633 217.954 22.022C217.734 22.0807 217.492 22.132 217.228 22.176C216.979 22.22 216.715 22.242 216.436 22.242ZM225.698 11.55C227.077 11.55 228.14 11.9827 228.888 12.848C229.636 13.6987 230.01 14.9967 230.01 16.742V17.38H222.706C222.779 18.436 223.124 19.2427 223.74 19.8C224.371 20.3427 225.251 20.614 226.38 20.614C227.025 20.614 227.575 20.5627 228.03 20.46C228.485 20.3573 228.829 20.2473 229.064 20.13L229.306 21.67C229.086 21.7873 228.69 21.912 228.118 22.044C227.546 22.176 226.901 22.242 226.182 22.242C225.302 22.242 224.525 22.11 223.85 21.846C223.19 21.5673 222.64 21.1933 222.2 20.724C221.76 20.2547 221.43 19.6973 221.21 19.052C220.99 18.392 220.88 17.6807 220.88 16.918C220.88 16.0087 221.019 15.2167 221.298 14.542C221.577 13.8673 221.943 13.31 222.398 12.87C222.853 12.43 223.366 12.1 223.938 11.88C224.51 11.66 225.097 11.55 225.698 11.55ZM228.162 15.906C228.162 15.0407 227.935 14.3587 227.48 13.86C227.025 13.3467 226.424 13.09 225.676 13.09C225.251 13.09 224.862 13.1707 224.51 13.332C224.173 13.4933 223.879 13.706 223.63 13.97C223.381 14.234 223.183 14.5347 223.036 14.872C222.889 15.2093 222.794 15.554 222.75 15.906H228.162Z" fill="#429FDA"/>
<path d="M274.076 8.03C273.827 8.08867 273.585 8.14733 273.35 8.206C273.115 8.25 272.895 8.32333 272.69 8.426C272.499 8.52867 272.323 8.66067 272.162 8.822C272.001 8.96867 271.876 9.174 271.788 9.438C272.213 9.482 272.529 9.65067 272.734 9.944C272.954 10.2227 273.064 10.538 273.064 10.89C273.064 11.2567 272.939 11.594 272.69 11.902C272.455 12.1953 272.096 12.342 271.612 12.342C271.187 12.342 270.813 12.1953 270.49 11.902C270.182 11.6087 270.028 11.1393 270.028 10.494C270.028 10.0833 270.087 9.67267 270.204 9.262C270.336 8.85133 270.541 8.47733 270.82 8.14C271.113 7.80267 271.495 7.50933 271.964 7.26C272.448 7.01067 273.049 6.842 273.768 6.754L274.076 8.03ZM268.994 8.03C268.745 8.08867 268.503 8.14733 268.268 8.206C268.033 8.25 267.813 8.32333 267.608 8.426C267.403 8.52867 267.219 8.66067 267.058 8.822C266.897 8.96867 266.772 9.174 266.684 9.438C267.109 9.482 267.425 9.65067 267.63 9.944C267.85 10.2227 267.96 10.538 267.96 10.89C267.96 11.2567 267.843 11.594 267.608 11.902C267.373 12.1953 267.007 12.342 266.508 12.342C266.083 12.342 265.716 12.1953 265.408 11.902C265.1 11.6087 264.946 11.1393 264.946 10.494C264.946 10.0833 265.005 9.67267 265.122 9.262C265.254 8.85133 265.459 8.47733 265.738 8.14C266.031 7.80267 266.413 7.50933 266.882 7.26C267.366 7.01067 267.967 6.842 268.686 6.754L268.994 8.03ZM276.078 16.918C276.078 15.994 276.225 15.1947 276.518 14.52C276.811 13.8453 277.215 13.288 277.728 12.848C278.241 12.408 278.835 12.0853 279.51 11.88C280.199 11.66 280.933 11.55 281.71 11.55C282.209 11.55 282.7 11.5867 283.184 11.66C283.683 11.7187 284.211 11.836 284.768 12.012L284.35 13.574C283.866 13.398 283.419 13.288 283.008 13.244C282.612 13.1853 282.209 13.156 281.798 13.156C281.27 13.156 280.771 13.2293 280.302 13.376C279.833 13.508 279.422 13.728 279.07 14.036C278.733 14.3293 278.461 14.718 278.256 15.202C278.051 15.6713 277.948 16.2433 277.948 16.918C277.948 17.5633 278.043 18.1207 278.234 18.59C278.425 19.0447 278.689 19.426 279.026 19.734C279.378 20.0273 279.796 20.2473 280.28 20.394C280.764 20.5407 281.299 20.614 281.886 20.614C282.355 20.614 282.803 20.592 283.228 20.548C283.668 20.4893 284.145 20.372 284.658 20.196L284.922 21.714C284.409 21.9047 283.888 22.0367 283.36 22.11C282.832 22.198 282.26 22.242 281.644 22.242C280.823 22.242 280.067 22.132 279.378 21.912C278.703 21.6773 278.117 21.34 277.618 20.9C277.134 20.46 276.753 19.91 276.474 19.25C276.21 18.5753 276.078 17.798 276.078 16.918ZM296.12 16.896C296.12 17.7027 296.003 18.436 295.768 19.096C295.548 19.7413 295.233 20.2987 294.822 20.768C294.411 21.2373 293.92 21.604 293.348 21.868C292.776 22.1173 292.153 22.242 291.478 22.242C290.818 22.242 290.202 22.1173 289.63 21.868C289.073 21.604 288.589 21.2373 288.178 20.768C287.767 20.2987 287.445 19.7413 287.21 19.096C286.99 18.436 286.88 17.7027 286.88 16.896C286.88 16.0893 286.99 15.356 287.21 14.696C287.445 14.036 287.767 13.4787 288.178 13.024C288.589 12.5547 289.073 12.1953 289.63 11.946C290.202 11.682 290.818 11.55 291.478 11.55C292.153 11.55 292.776 11.682 293.348 11.946C293.92 12.1953 294.411 12.5547 294.822 13.024C295.233 13.4787 295.548 14.036 295.768 14.696C296.003 15.356 296.12 16.0893 296.12 16.896ZM294.25 16.896C294.25 15.7373 294.001 14.828 293.502 14.168C293.003 13.4933 292.329 13.156 291.478 13.156C290.642 13.156 289.975 13.4933 289.476 14.168C288.992 14.828 288.75 15.7373 288.75 16.896C288.75 18.04 288.992 18.9493 289.476 19.624C289.975 20.284 290.642 20.614 291.478 20.614C292.329 20.614 293.003 20.284 293.502 19.624C294.001 18.9493 294.25 18.04 294.25 16.896ZM304.436 22.242C303.791 22.242 303.255 22.154 302.83 21.978C302.405 21.802 302.067 21.538 301.818 21.186C301.569 20.834 301.393 20.4013 301.29 19.888C301.187 19.36 301.136 18.7513 301.136 18.062V8.404H298.188V6.864H302.94V18.062C302.94 18.5753 302.969 18.9933 303.028 19.316C303.101 19.6387 303.204 19.9027 303.336 20.108C303.483 20.2987 303.659 20.4307 303.864 20.504C304.069 20.5773 304.311 20.614 304.59 20.614C305.015 20.614 305.411 20.5627 305.778 20.46C306.145 20.3573 306.431 20.2473 306.636 20.13L306.9 21.67C306.812 21.714 306.687 21.7727 306.526 21.846C306.365 21.9047 306.174 21.9633 305.954 22.022C305.734 22.0807 305.492 22.132 305.228 22.176C304.979 22.22 304.715 22.242 304.436 22.242ZM318.12 16.896C318.12 17.7027 318.003 18.436 317.768 19.096C317.548 19.7413 317.233 20.2987 316.822 20.768C316.411 21.2373 315.92 21.604 315.348 21.868C314.776 22.1173 314.153 22.242 313.478 22.242C312.818 22.242 312.202 22.1173 311.63 21.868C311.073 21.604 310.589 21.2373 310.178 20.768C309.767 20.2987 309.445 19.7413 309.21 19.096C308.99 18.436 308.88 17.7027 308.88 16.896C308.88 16.0893 308.99 15.356 309.21 14.696C309.445 14.036 309.767 13.4787 310.178 13.024C310.589 12.5547 311.073 12.1953 311.63 11.946C312.202 11.682 312.818 11.55 313.478 11.55C314.153 11.55 314.776 11.682 315.348 11.946C315.92 12.1953 316.411 12.5547 316.822 13.024C317.233 13.4787 317.548 14.036 317.768 14.696C318.003 15.356 318.12 16.0893 318.12 16.896ZM316.25 16.896C316.25 15.7373 316.001 14.828 315.502 14.168C315.003 13.4933 314.329 13.156 313.478 13.156C312.642 13.156 311.975 13.4933 311.476 14.168C310.992 14.828 310.75 15.7373 310.75 16.896C310.75 18.04 310.992 18.9493 311.476 19.624C311.975 20.284 312.642 20.614 313.478 20.614C314.329 20.614 315.003 20.284 315.502 19.624C316.001 18.9493 316.25 18.04 316.25 16.896ZM321.354 22V12.342C322.85 11.8287 324.361 11.572 325.886 11.572C326.355 11.572 326.803 11.594 327.228 11.638C327.653 11.6673 328.123 11.7407 328.636 11.858L328.306 13.464C327.837 13.332 327.419 13.2513 327.052 13.222C326.7 13.178 326.311 13.156 325.886 13.156C324.991 13.156 324.082 13.2807 323.158 13.53V22H321.354ZM337.128 20.592C337.128 21.032 336.981 21.4207 336.688 21.758C336.395 22.0953 336.006 22.264 335.522 22.264C335.023 22.264 334.627 22.0953 334.334 21.758C334.041 21.4207 333.894 21.032 333.894 20.592C333.894 20.1373 334.041 19.7413 334.334 19.404C334.627 19.0667 335.023 18.898 335.522 18.898C336.006 18.898 336.395 19.0667 336.688 19.404C336.981 19.7413 337.128 20.1373 337.128 20.592ZM337.128 13.486C337.128 13.926 336.981 14.3147 336.688 14.652C336.395 14.9893 336.006 15.158 335.522 15.158C335.023 15.158 334.627 14.9893 334.334 14.652C334.041 14.3147 333.894 13.926 333.894 13.486C333.894 13.0313 334.041 12.6353 334.334 12.298C334.627 11.9607 335.023 11.792 335.522 11.792C336.006 11.792 336.395 11.9607 336.688 12.298C336.981 12.6353 337.128 13.0313 337.128 13.486ZM440.924 11.066C441.173 11.0073 441.415 10.956 441.65 10.912C441.885 10.8533 442.097 10.7727 442.288 10.67C442.493 10.5673 442.677 10.4353 442.838 10.274C442.999 10.1127 443.124 9.9 443.212 9.636C442.787 9.60667 442.464 9.44533 442.244 9.152C442.039 8.85867 441.936 8.54333 441.936 8.206C441.936 7.83933 442.053 7.50933 442.288 7.216C442.537 6.908 442.904 6.754 443.388 6.754C443.813 6.754 444.18 6.90067 444.488 7.194C444.811 7.48733 444.972 7.95667 444.972 8.602C444.972 9.02733 444.906 9.44533 444.774 9.856C444.657 10.252 444.451 10.6187 444.158 10.956C443.879 11.2933 443.498 11.5867 443.014 11.836C442.545 12.0853 441.951 12.254 441.232 12.342L440.924 11.066ZM446.006 11.066C446.255 11.0073 446.497 10.956 446.732 10.912C446.967 10.8533 447.187 10.7727 447.392 10.67C447.597 10.5673 447.781 10.4353 447.942 10.274C448.103 10.1127 448.228 9.9 448.316 9.636C447.891 9.60667 447.568 9.44533 447.348 9.152C447.143 8.85867 447.04 8.54333 447.04 8.206C447.04 7.83933 447.157 7.50933 447.392 7.216C447.627 6.908 447.993 6.754 448.492 6.754C448.917 6.754 449.284 6.90067 449.592 7.194C449.9 7.48733 450.054 7.95667 450.054 8.602C450.054 9.02733 449.988 9.44533 449.856 9.856C449.739 10.252 449.533 10.6187 449.24 10.956C448.961 11.2933 448.58 11.5867 448.096 11.836C447.627 12.0853 447.04 12.254 446.336 12.342L446.006 11.066Z" fill="#C4C4C4"/>
<path d="M355.036 11.726L355.674 8.382H357.918L357.258 11.726H359.018L359.656 8.382H361.9L361.262 11.726H362.626V13.97H360.822L360.36 16.39H362.626V18.634H359.942L359.304 22H357.06L357.698 18.634H355.938L355.322 22H353.078L353.716 18.634H352.396V16.39H354.134L354.596 13.97H352.396V11.726H355.036ZM356.378 16.39H358.138L358.578 13.97H356.84L356.378 16.39ZM370.062 17.996C370.062 17.6147 369.996 17.27 369.864 16.962C369.747 16.6393 369.497 16.368 369.116 16.148C368.749 15.9133 368.221 15.7373 367.532 15.62C366.843 15.488 365.941 15.422 364.826 15.422C364.973 14.19 365.09 12.9873 365.178 11.814C365.266 10.626 365.332 9.482 365.376 8.382H372.328V10.626H367.642C367.613 11.0953 367.576 11.5867 367.532 12.1C367.488 12.6133 367.451 13.0313 367.422 13.354C369.241 13.4713 370.597 13.9113 371.492 14.674C372.387 15.4367 372.834 16.5073 372.834 17.886C372.834 18.5167 372.724 19.1033 372.504 19.646C372.284 20.174 371.947 20.636 371.492 21.032C371.037 21.428 370.473 21.736 369.798 21.956C369.123 22.176 368.339 22.286 367.444 22.286C367.092 22.286 366.733 22.264 366.366 22.22C365.999 22.176 365.647 22.1173 365.31 22.044C364.973 21.9853 364.665 21.912 364.386 21.824C364.122 21.736 363.917 21.6553 363.77 21.582L364.32 19.338C364.643 19.4993 365.053 19.646 365.552 19.778C366.051 19.91 366.674 19.976 367.422 19.976C367.95 19.976 368.383 19.9173 368.72 19.8C369.072 19.6827 369.343 19.536 369.534 19.36C369.739 19.1693 369.879 18.9567 369.952 18.722C370.025 18.4873 370.062 18.2453 370.062 17.996ZM384.318 17.886C384.318 18.7073 384.179 19.3967 383.9 19.954C383.621 20.4967 383.24 20.9367 382.756 21.274C382.287 21.5967 381.722 21.8313 381.062 21.978C380.417 22.11 379.72 22.176 378.972 22.176C378.371 22.176 377.747 22.1393 377.102 22.066C376.457 22.0073 375.819 21.912 375.188 21.78V8.558C375.701 8.47 376.266 8.39667 376.882 8.338C377.498 8.26467 378.107 8.228 378.708 8.228C379.735 8.228 380.571 8.338 381.216 8.558C381.861 8.76333 382.367 9.042 382.734 9.394C383.101 9.73133 383.35 10.1127 383.482 10.538C383.614 10.9633 383.68 11.3887 383.68 11.814C383.68 12.4593 383.519 13.0313 383.196 13.53C382.888 14.0287 382.47 14.4247 381.942 14.718C382.866 15.0553 383.489 15.51 383.812 16.082C384.149 16.654 384.318 17.2553 384.318 17.886ZM377.894 16.038V19.734C378.085 19.7633 378.29 19.7853 378.51 19.8C378.745 19.8147 378.972 19.822 379.192 19.822C379.5 19.822 379.801 19.8 380.094 19.756C380.387 19.6973 380.644 19.602 380.864 19.47C381.099 19.3233 381.289 19.1253 381.436 18.876C381.583 18.612 381.656 18.282 381.656 17.886C381.656 17.226 381.443 16.7567 381.018 16.478C380.607 16.1847 380.05 16.038 379.346 16.038H377.894ZM378.95 13.794C379.639 13.794 380.16 13.6473 380.512 13.354C380.864 13.046 381.04 12.628 381.04 12.1C381.04 11.7773 380.989 11.5207 380.886 11.33C380.783 11.1247 380.644 10.9707 380.468 10.868C380.292 10.7507 380.087 10.6773 379.852 10.648C379.617 10.604 379.375 10.582 379.126 10.582C378.921 10.582 378.708 10.5893 378.488 10.604C378.268 10.6187 378.07 10.6407 377.894 10.67V13.794H378.95ZM388.894 19.8C388.967 19.8147 389.048 19.822 389.136 19.822C389.224 19.822 389.305 19.822 389.378 19.822C389.994 19.822 390.507 19.7047 390.918 19.47C391.343 19.2353 391.681 18.9127 391.93 18.502C392.194 18.0913 392.377 17.6073 392.48 17.05C392.597 16.478 392.656 15.8547 392.656 15.18C392.656 14.5933 392.612 14.0213 392.524 13.464C392.436 12.9067 392.282 12.4153 392.062 11.99C391.842 11.5647 391.541 11.2273 391.16 10.978C390.779 10.714 390.287 10.582 389.686 10.582C389.569 10.582 389.437 10.5893 389.29 10.604C389.143 10.604 389.011 10.6187 388.894 10.648V19.8ZM395.406 15.18C395.406 16.4413 395.245 17.5193 394.922 18.414C394.614 19.294 394.181 20.0127 393.624 20.57C393.067 21.1273 392.399 21.538 391.622 21.802C390.859 22.0513 390.016 22.176 389.092 22.176C388.608 22.176 388.131 22.1467 387.662 22.088C387.207 22.044 386.716 21.9633 386.188 21.846V8.558C386.804 8.426 387.383 8.338 387.926 8.294C388.469 8.25 388.975 8.228 389.444 8.228C390.339 8.228 391.153 8.36 391.886 8.624C392.634 8.888 393.265 9.306 393.778 9.878C394.291 10.4353 394.687 11.154 394.966 12.034C395.259 12.8993 395.406 13.948 395.406 15.18ZM402.512 22.286C400.591 22.286 399.124 21.67 398.112 20.438C397.1 19.206 396.594 17.4533 396.594 15.18C396.594 14.0507 396.748 13.046 397.056 12.166C397.364 11.286 397.789 10.5453 398.332 9.944C398.889 9.328 399.542 8.866 400.29 8.558C401.053 8.23533 401.881 8.074 402.776 8.074C403.26 8.074 403.693 8.118 404.074 8.206C404.47 8.27933 404.815 8.36733 405.108 8.47C405.401 8.57267 405.643 8.68267 405.834 8.8C406.039 8.91733 406.193 9.00533 406.296 9.064L405.592 11.22C405.255 11 404.844 10.8167 404.36 10.67C403.891 10.5087 403.348 10.428 402.732 10.428C402.307 10.428 401.889 10.5087 401.478 10.67C401.082 10.8167 400.723 11.0733 400.4 11.44C400.092 11.792 399.835 12.2687 399.63 12.87C399.439 13.4713 399.344 14.2193 399.344 15.114C399.344 16.6687 399.608 17.864 400.136 18.7C400.679 19.5213 401.559 19.932 402.776 19.932C403.48 19.932 404.059 19.8513 404.514 19.69C404.983 19.5287 405.357 19.3673 405.636 19.206L406.318 21.34C405.937 21.5747 405.416 21.7947 404.756 22C404.111 22.1907 403.363 22.286 402.512 22.286ZM410.894 19.8C410.967 19.8147 411.048 19.822 411.136 19.822C411.224 19.822 411.305 19.822 411.378 19.822C411.994 19.822 412.507 19.7047 412.918 19.47C413.343 19.2353 413.681 18.9127 413.93 18.502C414.194 18.0913 414.377 17.6073 414.48 17.05C414.597 16.478 414.656 15.8547 414.656 15.18C414.656 14.5933 414.612 14.0213 414.524 13.464C414.436 12.9067 414.282 12.4153 414.062 11.99C413.842 11.5647 413.541 11.2273 413.16 10.978C412.779 10.714 412.287 10.582 411.686 10.582C411.569 10.582 411.437 10.5893 411.29 10.604C411.143 10.604 411.011 10.6187 410.894 10.648V19.8ZM417.406 15.18C417.406 16.4413 417.245 17.5193 416.922 18.414C416.614 19.294 416.181 20.0127 415.624 20.57C415.067 21.1273 414.399 21.538 413.622 21.802C412.859 22.0513 412.016 22.176 411.092 22.176C410.608 22.176 410.131 22.1467 409.662 22.088C409.207 22.044 408.716 21.9633 408.188 21.846V8.558C408.804 8.426 409.383 8.338 409.926 8.294C410.469 8.25 410.975 8.228 411.444 8.228C412.339 8.228 413.153 8.36 413.886 8.624C414.634 8.888 415.265 9.306 415.778 9.878C416.291 10.4353 416.687 11.154 416.966 12.034C417.259 12.8993 417.406 13.948 417.406 15.18ZM425.898 22L425.26 18.854H421.63L421.014 22H418.198C418.843 19.316 419.496 16.874 420.156 14.674C420.816 12.4593 421.454 10.362 422.07 8.382H425.018C425.663 10.3767 426.301 12.496 426.932 14.74C427.577 16.9693 428.201 19.3893 428.802 22H425.898ZM423.478 11.022C423.331 11.5353 423.192 12.0267 423.06 12.496C422.943 12.9507 422.825 13.4053 422.708 13.86C422.605 14.3 422.503 14.7473 422.4 15.202C422.312 15.6567 422.224 16.126 422.136 16.61H424.798C424.71 16.126 424.622 15.6567 424.534 15.202C424.446 14.7473 424.343 14.3 424.226 13.86C424.123 13.4053 424.006 12.9507 423.874 12.496C423.757 12.0267 423.625 11.5353 423.478 11.022Z" fill="#29343F"/>
</svg>
