<svg width="205" height="46" viewBox="0 0 205 46" fill="none" xmlns="http://www.w3.org/2000/svg">
<path d="M35.5803 18.14C37.3908 18.14 38 18 38.86 19.78C39.18 20.42 39.5067 21.12 39.84 21.88C40.1867 22.6267 40.5267 23.3933 40.86 24.18C41.1933 24.9667 40.5067 25.7067 40.8 26.4C39.84 25.7499 40.4067 24.9667 40.74 24.18C41.0733 23.3933 41.4067 22.6267 41.74 21.88C42.0867 21.12 42.4352 20.43 42.72 19.78C43.5 18 44.4879 18.14 45.76 18.14H47.4C47.5333 19.06 47.6533 20.0933 47.76 21.24C47.88 22.3733 47.98 23.56 48.06 24.8C48.1533 26.0267 48.2333 27.26 48.3 28.5C48.38 29.74 48.4467 30.9067 48.5 32H45.46C45.42 30.6533 45.3667 29.1867 45.3 27.6C45.2333 26.0133 45.1333 22.4133 45 20.8C44.76 21.36 44.4933 21.98 44.2 22.66C43.9067 23.34 43.6133 24.02 43.32 24.7C43.04 25.38 42.7667 26.0333 42.5 26.66C42.2333 27.2733 42.0067 27.8 41.82 28.24L40.73 31L39.64 28.24C39.4533 27.8 39.2267 27.2733 38.96 26.66C38.6933 26.0333 38.4133 25.38 38.12 24.7C37.84 24.02 37.5533 23.34 37.26 22.66C36.9667 21.98 36.7 21.36 36.46 20.8C36.3267 22.4133 36.2267 26.0133 36.16 27.6C36.0933 29.1867 36.04 30.6533 36 32H32.96C33.0133 30.9067 33.0733 29.74 33.14 28.5C33.22 27.26 33.3 26.0267 33.38 24.8C33.4733 23.56 33.5733 22.3733 33.68 21.24C33.8 20.0933 33.9267 19.06 34.06 18.14H35.5803Z" fill="#5BDCDA"/>
<path d="M55.3692 25.06C55.3692 25.74 55.4492 26.3533 55.6092 26.9C55.7825 27.4467 56.0225 27.92 56.3292 28.32C56.6492 28.7067 57.0359 29.0067 57.4892 29.22C57.9425 29.4333 58.4625 29.54 59.0492 29.54C59.6225 29.54 60.1359 29.4333 60.5892 29.22C61.0559 29.0067 61.4425 28.7067 61.7492 28.32C62.0692 27.92 62.3092 27.4467 62.4692 26.9C62.6425 26.3533 62.7292 25.74 62.7292 25.06C62.7292 24.38 62.6425 23.7667 62.4692 23.22C62.3092 22.66 62.0692 22.1867 61.7492 21.8C61.4425 21.4 61.0559 21.0933 60.5892 20.88C60.1359 20.6667 59.6225 20.56 59.0492 20.56C58.4625 20.56 57.9425 20.6733 57.4892 20.9C57.0359 21.1133 56.6492 21.42 56.3292 21.82C56.0225 22.2067 55.7825 22.68 55.6092 23.24C55.4492 23.7867 55.3692 24.3933 55.3692 25.06ZM65.9492 25.06C65.9492 26.2467 65.7692 27.2933 65.4092 28.2C65.0625 29.0933 64.5825 29.8467 63.9692 30.46C63.3559 31.06 62.6225 31.5133 61.7692 31.82C60.9292 32.1267 60.0225 32.28 59.0492 32.28C58.1025 32.28 57.2092 32.1267 56.3692 31.82C55.5292 31.5133 54.7959 31.06 54.1692 30.46C53.5425 29.8467 53.0492 29.0933 52.6892 28.2C52.3292 27.2933 52.1492 26.2467 52.1492 25.06C52.1492 23.8733 52.3359 22.8333 52.7092 21.94C53.0825 21.0333 53.5825 20.2733 54.2092 19.66C54.8492 19.0467 55.5825 18.5867 56.4092 18.28C57.2492 17.9733 58.1292 17.82 59.0492 17.82C59.9959 17.82 60.8892 17.9733 61.7292 18.28C62.5692 18.5867 63.3025 19.0467 63.9292 19.66C64.5559 20.2733 65.0492 21.0333 65.4092 21.94C65.7692 22.8333 65.9492 23.8733 65.9492 25.06Z" fill="#5BDCDA"/>
<path d="M72.32 30.42C72.32 31.02 72.1267 31.48 71.74 31.8C71.3667 32.1067 70.94 32.26 70.46 32.26C69.98 32.26 69.5467 32.1067 69.16 31.8C68.7867 31.48 68.6 31.02 68.6 30.42C68.6 29.82 68.7867 29.3667 69.16 29.06C69.5467 28.74 69.98 28.58 70.46 28.58C70.94 28.58 71.3667 28.74 71.74 29.06C72.1267 29.3667 72.32 29.82 72.32 30.42Z" fill="#429FDA"/>
<path d="M78.54 32.15C77.68 32.13 77.07 31.945 76.71 31.595C76.35 31.245 76.17 30.7 76.17 29.96V20.6L77.565 20.36V29.735C77.565 29.965 77.585 30.155 77.625 30.305C77.665 30.455 77.73 30.575 77.82 30.665C77.91 30.755 78.03 30.825 78.18 30.875C78.33 30.915 78.515 30.95 78.735 30.98L78.54 32.15ZM83.0916 30.995C83.4216 30.995 83.7116 30.99 83.9616 30.98C84.2216 30.96 84.4366 30.93 84.6066 30.89V28.565C84.5066 28.515 84.3416 28.475 84.1116 28.445C83.8916 28.405 83.6216 28.385 83.3016 28.385C83.0916 28.385 82.8666 28.4 82.6266 28.43C82.3966 28.46 82.1816 28.525 81.9816 28.625C81.7916 28.715 81.6316 28.845 81.5016 29.015C81.3716 29.175 81.3066 29.39 81.3066 29.66C81.3066 30.16 81.4666 30.51 81.7866 30.71C82.1066 30.9 82.5416 30.995 83.0916 30.995ZM82.9716 24.005C83.5316 24.005 84.0016 24.08 84.3816 24.23C84.7716 24.37 85.0816 24.575 85.3116 24.845C85.5516 25.105 85.7216 25.42 85.8216 25.79C85.9216 26.15 85.9716 26.55 85.9716 26.99V31.865C85.8516 31.885 85.6816 31.915 85.4616 31.955C85.2516 31.985 85.0116 32.015 84.7416 32.045C84.4716 32.075 84.1766 32.1 83.8566 32.12C83.5466 32.15 83.2366 32.165 82.9266 32.165C82.4866 32.165 82.0816 32.12 81.7116 32.03C81.3416 31.94 81.0216 31.8 80.7516 31.61C80.4816 31.41 80.2716 31.15 80.1216 30.83C79.9716 30.51 79.8966 30.125 79.8966 29.675C79.8966 29.245 79.9816 28.875 80.1516 28.565C80.3316 28.255 80.5716 28.005 80.8716 27.815C81.1716 27.625 81.5216 27.485 81.9216 27.395C82.3216 27.305 82.7416 27.26 83.1816 27.26C83.3216 27.26 83.4666 27.27 83.6166 27.29C83.7666 27.3 83.9066 27.32 84.0366 27.35C84.1766 27.37 84.2966 27.39 84.3966 27.41C84.4966 27.43 84.5666 27.445 84.6066 27.455V27.065C84.6066 26.835 84.5816 26.61 84.5316 26.39C84.4816 26.16 84.3916 25.96 84.2616 25.79C84.1316 25.61 83.9516 25.47 83.7216 25.37C83.5016 25.26 83.2116 25.205 82.8516 25.205C82.3916 25.205 81.9866 25.24 81.6366 25.31C81.2966 25.37 81.0416 25.435 80.8716 25.505L80.7066 24.35C80.8866 24.27 81.1866 24.195 81.6066 24.125C82.0266 24.045 82.4816 24.005 82.9716 24.005ZM89.8335 24.545C90.0035 24.435 90.2585 24.32 90.5985 24.2C90.9485 24.08 91.3485 24.02 91.7985 24.02C92.3585 24.02 92.8535 24.12 93.2835 24.32C93.7235 24.52 94.0935 24.8 94.3935 25.16C94.6935 25.52 94.9185 25.95 95.0685 26.45C95.2285 26.95 95.3085 27.5 95.3085 28.1C95.3085 28.73 95.2135 29.3 95.0235 29.81C94.8435 30.31 94.5835 30.735 94.2435 31.085C93.9035 31.435 93.4935 31.705 93.0135 31.895C92.5335 32.085 91.9935 32.18 91.3935 32.18C90.7435 32.18 90.1685 32.135 89.6685 32.045C89.1685 31.955 88.7585 31.865 88.4385 31.775V20.6L89.8335 20.36V24.545ZM89.8335 30.785C89.9735 30.825 90.1685 30.865 90.4185 30.905C90.6785 30.935 90.9985 30.95 91.3785 30.95C92.1285 30.95 92.7285 30.705 93.1785 30.215C93.6285 29.715 93.8535 29.01 93.8535 28.1C93.8535 27.7 93.8135 27.325 93.7335 26.975C93.6535 26.625 93.5235 26.325 93.3435 26.075C93.1635 25.815 92.9285 25.615 92.6385 25.475C92.3585 25.325 92.0185 25.25 91.6185 25.25C91.2385 25.25 90.8885 25.315 90.5685 25.445C90.2485 25.575 90.0035 25.71 89.8335 25.85V30.785Z" fill="#429FDA"/>
<mask id="mask0" mask-type="alpha" maskUnits="userSpaceOnUse" x="3" y="16" width="18" height="17">
<path d="M10.2679 17.5C11.0377 16.1667 12.9623 16.1667 13.7321 17.5L20.6603 29.5C21.4301 30.8333 20.4678 32.5 18.9282 32.5H5.0718C3.5322 32.5 2.56995 30.8333 3.33975 29.5L10.2679 17.5Z" fill="#C4C4C4"/>
</mask>
<g mask="url(#mask0)">
<path d="M2.82352 26.971C3.29411 24.618 5.43529 20.8298 10.2353 24.5004C15.6 27.6063 18.5882 24.8533 19.4118 23.0886L27.1765 34.6176C33.3882 43.8409 11.8823 38.9312 0.352936 35.3235L2.82352 26.971Z" fill="#5BDCDA" stroke="#5BDCDA"/>
</g>
<circle cx="13.7143" cy="19.2143" r="2.57143" fill="#429FDA"/>
<circle opacity="0.4" cx="16.5714" cy="16.5714" r="2.57143" fill="#429FDA"/>
<circle opacity="0.3" cx="16" cy="15" r="5" fill="#429FDA"/>
</svg>
