<svg width="205" height="46" viewBox="0 0 205 46" fill="none" xmlns="http://www.w3.org/2000/svg">
<path d="M38.28 18.14C38.52 18.58 38.7933 19.1267 39.1 19.78C39.42 20.42 39.7467 21.12 40.08 21.88C40.4267 22.6267 40.7667 23.3933 41.1 24.18C41.4333 24.9667 41.7467 25.7067 42.04 26.4C42.3333 25.7067 42.6467 24.9667 42.98 24.18C43.3133 23.3933 43.6467 22.6267 43.98 21.88C44.3267 21.12 44.6533 20.42 44.96 19.78C45.28 19.1267 45.56 18.58 45.8 18.14H48.64C48.7733 19.06 48.8933 20.0933 49 21.24C49.12 22.3733 49.22 23.56 49.3 24.8C49.3933 26.0267 49.4733 27.26 49.54 28.5C49.62 29.74 49.6867 30.9067 49.74 32H46.7C46.66 30.6533 46.6067 29.1867 46.54 27.6C46.4733 26.0133 46.3733 24.4133 46.24 22.8C46 23.36 45.7333 23.98 45.44 24.66C45.1467 25.34 44.8533 26.02 44.56 26.7C44.28 27.38 44.0067 28.0333 43.74 28.66C43.4733 29.2733 43.2467 29.8 43.06 30.24H40.88C40.6933 29.8 40.4667 29.2733 40.2 28.66C39.9333 28.0333 39.6533 27.38 39.36 26.7C39.08 26.02 38.7933 25.34 38.5 24.66C38.2067 23.98 37.94 23.36 37.7 22.8C37.5667 24.4133 37.4667 26.0133 37.4 27.6C37.3333 29.1867 37.28 30.6533 37.24 32H34.2C34.2533 30.9067 34.3133 29.74 34.38 28.5C34.46 27.26 34.54 26.0267 34.62 24.8C34.7133 23.56 34.8133 22.3733 34.92 21.24C35.04 20.0933 35.1667 19.06 35.3 18.14H38.28ZM55.3692 25.06C55.3692 25.74 55.4492 26.3533 55.6092 26.9C55.7826 27.4467 56.0226 27.92 56.3292 28.32C56.6492 28.7067 57.0359 29.0067 57.4892 29.22C57.9426 29.4333 58.4626 29.54 59.0492 29.54C59.6226 29.54 60.1359 29.4333 60.5892 29.22C61.0559 29.0067 61.4426 28.7067 61.7492 28.32C62.0692 27.92 62.3092 27.4467 62.4692 26.9C62.6426 26.3533 62.7292 25.74 62.7292 25.06C62.7292 24.38 62.6426 23.7667 62.4692 23.22C62.3092 22.66 62.0692 22.1867 61.7492 21.8C61.4426 21.4 61.0559 21.0933 60.5892 20.88C60.1359 20.6667 59.6226 20.56 59.0492 20.56C58.4626 20.56 57.9426 20.6733 57.4892 20.9C57.0359 21.1133 56.6492 21.42 56.3292 21.82C56.0226 22.2067 55.7826 22.68 55.6092 23.24C55.4492 23.7867 55.3692 24.3933 55.3692 25.06ZM65.9492 25.06C65.9492 26.2467 65.7692 27.2933 65.4092 28.2C65.0626 29.0933 64.5826 29.8467 63.9692 30.46C63.3559 31.06 62.6226 31.5133 61.7692 31.82C60.9292 32.1267 60.0226 32.28 59.0492 32.28C58.1026 32.28 57.2092 32.1267 56.3692 31.82C55.5292 31.5133 54.7959 31.06 54.1692 30.46C53.5426 29.8467 53.0492 29.0933 52.6892 28.2C52.3292 27.2933 52.1492 26.2467 52.1492 25.06C52.1492 23.8733 52.3359 22.8333 52.7092 21.94C53.0826 21.0333 53.5826 20.2733 54.2092 19.66C54.8492 19.0467 55.5826 18.5867 56.4092 18.28C57.2492 17.9733 58.1292 17.82 59.0492 17.82C59.9959 17.82 60.8892 17.9733 61.7292 18.28C62.5692 18.5867 63.3026 19.0467 63.9292 19.66C64.5559 20.2733 65.0492 21.0333 65.4092 21.94C65.7692 22.8333 65.9492 23.8733 65.9492 25.06Z" fill="#5BDCDA"/>
<path d="M72.32 30.42C72.32 31.02 72.1267 31.48 71.74 31.8C71.3667 32.1067 70.94 32.26 70.46 32.26C69.98 32.26 69.5467 32.1067 69.16 31.8C68.7867 31.48 68.6 31.02 68.6 30.42C68.6 29.82 68.7867 29.3667 69.16 29.06C69.5467 28.74 69.98 28.58 70.46 28.58C70.94 28.58 71.3667 28.74 71.74 29.06C72.1267 29.3667 72.32 29.82 72.32 30.42Z" fill="#429FDA"/>
<path d="M78.54 32.15C77.68 32.13 77.07 31.945 76.71 31.595C76.35 31.245 76.17 30.7 76.17 29.96V20.6L77.565 20.36V29.735C77.565 29.965 77.585 30.155 77.625 30.305C77.665 30.455 77.73 30.575 77.82 30.665C77.91 30.755 78.03 30.825 78.18 30.875C78.33 30.915 78.515 30.95 78.735 30.98L78.54 32.15ZM83.0916 30.995C83.4216 30.995 83.7116 30.99 83.9616 30.98C84.2216 30.96 84.4366 30.93 84.6066 30.89V28.565C84.5066 28.515 84.3416 28.475 84.1116 28.445C83.8916 28.405 83.6216 28.385 83.3016 28.385C83.0916 28.385 82.8666 28.4 82.6266 28.43C82.3966 28.46 82.1816 28.525 81.9816 28.625C81.7916 28.715 81.6316 28.845 81.5016 29.015C81.3716 29.175 81.3066 29.39 81.3066 29.66C81.3066 30.16 81.4666 30.51 81.7866 30.71C82.1066 30.9 82.5416 30.995 83.0916 30.995ZM82.9716 24.005C83.5316 24.005 84.0016 24.08 84.3816 24.23C84.7716 24.37 85.0816 24.575 85.3116 24.845C85.5516 25.105 85.7216 25.42 85.8216 25.79C85.9216 26.15 85.9716 26.55 85.9716 26.99V31.865C85.8516 31.885 85.6816 31.915 85.4616 31.955C85.2516 31.985 85.0116 32.015 84.7416 32.045C84.4716 32.075 84.1766 32.1 83.8566 32.12C83.5466 32.15 83.2366 32.165 82.9266 32.165C82.4866 32.165 82.0816 32.12 81.7116 32.03C81.3416 31.94 81.0216 31.8 80.7516 31.61C80.4816 31.41 80.2716 31.15 80.1216 30.83C79.9716 30.51 79.8966 30.125 79.8966 29.675C79.8966 29.245 79.9816 28.875 80.1516 28.565C80.3316 28.255 80.5716 28.005 80.8716 27.815C81.1716 27.625 81.5216 27.485 81.9216 27.395C82.3216 27.305 82.7416 27.26 83.1816 27.26C83.3216 27.26 83.4666 27.27 83.6166 27.29C83.7666 27.3 83.9066 27.32 84.0366 27.35C84.1766 27.37 84.2966 27.39 84.3966 27.41C84.4966 27.43 84.5666 27.445 84.6066 27.455V27.065C84.6066 26.835 84.5816 26.61 84.5316 26.39C84.4816 26.16 84.3916 25.96 84.2616 25.79C84.1316 25.61 83.9516 25.47 83.7216 25.37C83.5016 25.26 83.2116 25.205 82.8516 25.205C82.3916 25.205 81.9866 25.24 81.6366 25.31C81.2966 25.37 81.0416 25.435 80.8716 25.505L80.7066 24.35C80.8866 24.27 81.1866 24.195 81.6066 24.125C82.0266 24.045 82.4816 24.005 82.9716 24.005ZM89.8335 24.545C90.0035 24.435 90.2585 24.32 90.5985 24.2C90.9485 24.08 91.3485 24.02 91.7985 24.02C92.3585 24.02 92.8535 24.12 93.2835 24.32C93.7235 24.52 94.0935 24.8 94.3935 25.16C94.6935 25.52 94.9185 25.95 95.0685 26.45C95.2285 26.95 95.3085 27.5 95.3085 28.1C95.3085 28.73 95.2135 29.3 95.0235 29.81C94.8435 30.31 94.5835 30.735 94.2435 31.085C93.9035 31.435 93.4935 31.705 93.0135 31.895C92.5335 32.085 91.9935 32.18 91.3935 32.18C90.7435 32.18 90.1685 32.135 89.6685 32.045C89.1685 31.955 88.7585 31.865 88.4385 31.775V20.6L89.8335 20.36V24.545ZM89.8335 30.785C89.9735 30.825 90.1685 30.865 90.4185 30.905C90.6785 30.935 90.9985 30.95 91.3785 30.95C92.1285 30.95 92.7285 30.705 93.1785 30.215C93.6285 29.715 93.8535 29.01 93.8535 28.1C93.8535 27.7 93.8135 27.325 93.7335 26.975C93.6535 26.625 93.5235 26.325 93.3435 26.075C93.1635 25.815 92.9285 25.615 92.6385 25.475C92.3585 25.325 92.0185 25.25 91.6185 25.25C91.2385 25.25 90.8885 25.315 90.5685 25.445C90.2485 25.575 90.0035 25.71 89.8335 25.85V30.785Z" fill="#429FDA"/>
<mask id="mask0" mask-type="alpha" maskUnits="userSpaceOnUse" x="3" y="16" width="18" height="17">
<path d="M10.2679 17.5C11.0377 16.1667 12.9623 16.1667 13.7321 17.5L20.6603 29.5C21.4301 30.8333 20.4678 32.5 18.9282 32.5H5.0718C3.5322 32.5 2.56995 30.8333 3.33975 29.5L10.2679 17.5Z" fill="#C4C4C4"/>
</mask>
<g mask="url(#mask0)">
<path d="M2.82352 26.971C3.29411 24.618 5.43529 20.8298 10.2353 24.5004C15.6 27.6063 18.5882 24.8533 19.4118 23.0886L27.1765 34.6176C33.3882 43.8409 11.8823 38.9312 0.352936 35.3235L2.82352 26.971Z" fill="#5BDCDA" stroke="#5BDCDA"/>
</g>
<circle cx="13.7143" cy="19.2143" r="2.57143" fill="#429FDA"/>
</svg>
